<mxfile host="app.diagrams.net" agent="Mozilla/5.0 (X11; CrOS x86_64 14541.0.0) AppleWebKit/537.36 (KHTML, like Gecko) Chrome/135.0.0.0 Safari/537.36" version="27.0.3">
  <diagram name="Page-1" id="PN7qRq5zFnQ2r6Qerj_l">
    <mxGraphModel dx="1124" dy="531" grid="1" gridSize="10" guides="1" tooltips="1" connect="1" arrows="1" fold="1" page="1" pageScale="1" pageWidth="827" pageHeight="1169" math="0" shadow="0">
      <root>
        <mxCell id="0" />
        <mxCell id="1" parent="0" />
        <mxCell id="HDtAgDygVqLT_pwT3uqL-3" value="" style="edgeStyle=orthogonalEdgeStyle;rounded=0;orthogonalLoop=1;jettySize=auto;html=1;" parent="1" source="HDtAgDygVqLT_pwT3uqL-1" target="HDtAgDygVqLT_pwT3uqL-2" edge="1">
          <mxGeometry relative="1" as="geometry" />
        </mxCell>
        <mxCell id="HDtAgDygVqLT_pwT3uqL-1" value="start" style="ellipse;whiteSpace=wrap;html=1;" parent="1" vertex="1">
          <mxGeometry x="370" width="120" height="80" as="geometry" />
        </mxCell>
        <mxCell id="HDtAgDygVqLT_pwT3uqL-5" value="" style="edgeStyle=orthogonalEdgeStyle;rounded=0;orthogonalLoop=1;jettySize=auto;html=1;" parent="1" source="HDtAgDygVqLT_pwT3uqL-2" target="HDtAgDygVqLT_pwT3uqL-4" edge="1">
          <mxGeometry relative="1" as="geometry" />
        </mxCell>
        <mxCell id="HDtAgDygVqLT_pwT3uqL-2" value="count=0;&lt;div&gt;let num=2;&lt;/div&gt;&lt;div&gt;output=&quot; &quot;,&lt;/div&gt;" style="whiteSpace=wrap;html=1;" parent="1" vertex="1">
          <mxGeometry x="370" y="170" width="120" height="60" as="geometry" />
        </mxCell>
        <mxCell id="HDtAgDygVqLT_pwT3uqL-7" value="" style="edgeStyle=orthogonalEdgeStyle;rounded=0;orthogonalLoop=1;jettySize=auto;html=1;" parent="1" source="HDtAgDygVqLT_pwT3uqL-4" target="HDtAgDygVqLT_pwT3uqL-6" edge="1">
          <mxGeometry relative="1" as="geometry" />
        </mxCell>
        <mxCell id="HDtAgDygVqLT_pwT3uqL-9" value="" style="edgeStyle=orthogonalEdgeStyle;rounded=0;orthogonalLoop=1;jettySize=auto;html=1;" parent="1" source="HDtAgDygVqLT_pwT3uqL-4" target="HDtAgDygVqLT_pwT3uqL-8" edge="1">
          <mxGeometry relative="1" as="geometry" />
        </mxCell>
        <mxCell id="HDtAgDygVqLT_pwT3uqL-4" value="while (count&amp;lt;20)&lt;div&gt;condition&lt;/div&gt;" style="whiteSpace=wrap;html=1;" parent="1" vertex="1">
          <mxGeometry x="370" y="310" width="120" height="60" as="geometry" />
        </mxCell>
        <mxCell id="HDtAgDygVqLT_pwT3uqL-14" style="edgeStyle=orthogonalEdgeStyle;rounded=0;orthogonalLoop=1;jettySize=auto;html=1;exitX=0.5;exitY=1;exitDx=0;exitDy=0;entryX=0;entryY=0.5;entryDx=0;entryDy=0;" parent="1" source="HDtAgDygVqLT_pwT3uqL-6" target="HDtAgDygVqLT_pwT3uqL-10" edge="1">
          <mxGeometry relative="1" as="geometry" />
        </mxCell>
        <mxCell id="HDtAgDygVqLT_pwT3uqL-6" value="true" style="whiteSpace=wrap;html=1;" parent="1" vertex="1">
          <mxGeometry x="170" y="310" width="120" height="60" as="geometry" />
        </mxCell>
        <mxCell id="HDtAgDygVqLT_pwT3uqL-23" value="" style="edgeStyle=orthogonalEdgeStyle;rounded=0;orthogonalLoop=1;jettySize=auto;html=1;" parent="1" source="HDtAgDygVqLT_pwT3uqL-8" edge="1">
          <mxGeometry relative="1" as="geometry">
            <mxPoint x="630" y="450" as="targetPoint" />
          </mxGeometry>
        </mxCell>
        <mxCell id="HDtAgDygVqLT_pwT3uqL-8" value="false&amp;nbsp;" style="whiteSpace=wrap;html=1;" parent="1" vertex="1">
          <mxGeometry x="570" y="310" width="120" height="60" as="geometry" />
        </mxCell>
        <mxCell id="HDtAgDygVqLT_pwT3uqL-15" style="edgeStyle=orthogonalEdgeStyle;rounded=0;orthogonalLoop=1;jettySize=auto;html=1;exitX=0.5;exitY=0;exitDx=0;exitDy=0;entryX=0.5;entryY=1;entryDx=0;entryDy=0;" parent="1" source="HDtAgDygVqLT_pwT3uqL-10" target="HDtAgDygVqLT_pwT3uqL-4" edge="1">
          <mxGeometry relative="1" as="geometry" />
        </mxCell>
        <mxCell id="HDtAgDygVqLT_pwT3uqL-10" value="output=number;&lt;div&gt;number+=2;&lt;/div&gt;&lt;div&gt;count++;&lt;/div&gt;&lt;div&gt;&lt;br&gt;&lt;/div&gt;" style="whiteSpace=wrap;html=1;" parent="1" vertex="1">
          <mxGeometry x="370" y="650" width="120" height="160" as="geometry" />
        </mxCell>
        <mxCell id="HDtAgDygVqLT_pwT3uqL-18" value="even nubmer" style="text;html=1;align=center;verticalAlign=middle;whiteSpace=wrap;rounded=0;" parent="1" vertex="1">
          <mxGeometry x="120" y="20" width="190" height="40" as="geometry" />
        </mxCell>
        <mxCell id="HDtAgDygVqLT_pwT3uqL-24" value="document.get element by Id (&quot;result&quot;).inher.text=output" style="rounded=0;whiteSpace=wrap;html=1;" parent="1" vertex="1">
          <mxGeometry x="540" y="450" width="190" height="50" as="geometry" />
        </mxCell>
      </root>
    </mxGraphModel>
  </diagram>
</mxfile>
